<?xml version="1.0" standalone="no"?>
<!DOCTYPE svg PUBLIC "-//W3C//DTD SVG 20010904//EN"
 "http://www.w3.org/TR/2001/REC-SVG-20010904/DTD/svg10.dtd">
<svg version="1.0" xmlns="http://www.w3.org/2000/svg"
 width="64.000000pt" height="64.000000pt" viewBox="0 0 64.000000 64.000000"
 preserveAspectRatio="xMidYMid meet">

<g transform="translate(0.000000,64.000000) scale(0.100000,-0.100000)"
fill="#FFCCCC" stroke="none">
<path d="M260 594 c-28 -26 -50 -55 -50 -66 0 -29 28 -33 55 -8 l24 23 3 -154
3 -154 25 0 25 0 3 154 3 154 24 -23 c27 -25 55 -21 55 8 0 20 -89 112 -108
112 -7 0 -35 -21 -62 -46z"/>
<path d="M82 405 c-18 -8 -37 -26 -42 -40 -13 -35 -13 -291 0 -316 24 -43 57
-49 280 -49 230 0 261 6 280 56 13 33 13 275 0 309 -13 34 -64 55 -135 55 -54
0 -55 0 -55 -30 0 -30 1 -30 54 -30 90 0 86 6 86 -150 0 -116 -2 -139 -16
-144 -20 -8 -408 -8 -428 0 -14 5 -16 28 -16 144 0 156 -4 150 86 150 53 0 54
0 54 30 0 30 0 30 -57 30 -32 -1 -73 -7 -91 -15z"/>
</g>
</svg>
